<svg t="1670387379690" viewBox="0 0 1024 1024" version="1.1" xmlns="http://www.w3.org/2000/svg" p-id="7058" width="128" height="128"><path d="M522.436923 561.033846c-46.670769 0-84.676923 37.809231-84.676923 84.676923 0 33.673846 19.889231 62.424615 48.246154 76.012308v92.947692c0 20.086154 16.344615 36.233846 36.233846 36.233846 20.086154 0 36.233846-16.344615 36.233846-36.233846v-92.947692c28.553846-13.587692 48.246154-42.338462 48.246154-76.012308 0.196923-46.867692-37.612308-84.676923-84.283077-84.676923zM872.763077 391.876923H147.889231c-39.975385 0-72.467692 32.492308-72.467693 72.467692v483.249231c0 39.975385 32.492308 72.467692 72.467693 72.467692h724.873846c39.975385 0 72.467692-32.492308 72.467692-72.467692V464.344615c0-40.172308-32.492308-72.467692-72.467692-72.467692z m0 507.273846c0 39.975385-8.270769 48.246154-48.246154 48.246154h-628.184615c-39.975385 0-48.246154-8.270769-48.246154-48.246154V512.590769c0-39.975385 8.270769-48.246154 48.246154-48.246154h628.184615c39.975385 0 48.246154 8.270769 48.246154 48.246154v386.56z m-704.984615-543.704615c20.086154 0 36.430769-15.950769 37.021538-36.036923 32.689231-138.436923 156.947692-241.624615 305.427692-241.624616 115.987692 0 217.009231 63.212308 271.36 156.75077 5.710769 12.8 18.510769 21.661538 33.28 21.661538 20.086154 0 36.430769-16.344615 36.43077-36.430769 0-7.876923-2.56-15.163077-6.695385-21.070769C777.846154 83.298462 653.390769 5.12 510.227692 5.12c-187.076923 0-342.646154 128.393846-378.683077 304.64-0.196923 0.787692-0.393846 1.378462-0.393846 2.166154-0.196923 0.787692-0.393846 1.772308-0.590769 2.56h0.196923c-0.196923 1.181538-0.196923 2.363077-0.196923 3.544615 0.196923 20.676923 16.738462 37.415385 37.218462 37.415385z" fill="#4C4C4C" p-id="7059"></path></svg>